<svg width="340" height="130" viewBox="0 0 340 130" xmlns="http://www.w3.org/2000/svg" role="img" aria-label="Raa Al Teeb Logo">
  <!-- Flame at top -->
  <path d="M170 6 C172 10 176 13 176 18 C176 23 172 26 170 28 C168 26 164 23 164 18 C164 13 168 10 170 6Z" fill="#8B1A1A"/>
  <!-- Diamond gem body -->
  <polygon points="170,28 156,40 170,36" fill="#8B1A1A" opacity="0.6"/>
  <polygon points="170,28 184,40 170,36" fill="#8B1A1A" opacity="0.85"/>
  <polygon points="156,40 148,46 170,46" fill="#8B1A1A" opacity="0.55"/>
  <polygon points="170,46 192,46 184,40" fill="#8B1A1A" opacity="0.75"/>
  <polygon points="148,46 170,46 170,68" fill="#8B1A1A" opacity="0.7"/>
  <polygon points="170,46 192,46 170,68" fill="#8B1A1A" opacity="0.9"/>
  <!-- Arabic text -->
  <text x="170" y="91" text-anchor="middle" fill="#8B1A1A" font-size="23" font-weight="bold" font-family="Tajawal, Arabic UI Display, Arial, sans-serif">راع الطيب</text>
  <!-- Latin subtitle -->
  <text x="170" y="105" text-anchor="middle" fill="#8B1A1A" font-size="9" letter-spacing="3.5" font-family="Georgia, serif">RAA AL TEEB</text>
  <!-- Decorative border line -->
  <line x1="60" y1="111" x2="280" y2="111" stroke="#8B1A1A" stroke-width="0.7" opacity="0.5"/>
  <!-- Geometric pattern -->
  <polyline points="60,117 70,113 80,117 90,113 100,117 110,113 120,117 130,113 140,117 150,113 160,117 170,113 180,117 190,113 200,117 210,113 220,117 230,113 240,117 250,113 260,117 270,113 280,117" fill="none" stroke="#8B1A1A" stroke-width="1" opacity="0.45"/>
</svg>
